<?xml version="1.0" encoding="utf-8"?><svg version="1.1" id="Layer_1" xmlns="http://www.w3.org/2000/svg" xmlns:xlink="http://www.w3.org/1999/xlink" x="0px" y="0px" viewBox="0 0 122.88 118.3" style="enable-background:new 0 0 122.88 118.3" xml:space="preserve"><style type="text/css"><![CDATA[
	.st0{fill:#6BBE66;}
	.st1{fill:#393939;}
]]></style><g><path class="st0" d="M115.5,85.67v11.24h-14.21V85.67H115.5L115.5,85.67L115.5,85.67z M39.32,53.3v43.61H25.11V53.3H39.32 L39.32,53.3L39.32,53.3z M64.71,65.7v31.21h-14.2V65.7H64.71L64.71,65.7L64.71,65.7z M90.1,73.84v23.07H75.9V73.84H90.1L90.1,73.84 L90.1,73.84z"/><path class="st1" d="M12.53,19.38v86.39h108.46v12.53H6.27c-3.46,0-6.27-2.81-6.27-6.27V19.38H12.53L12.53,19.38L12.53,19.38z M40.66,17.78l-1.04,8.14c-0.32,2.51-2.61,4.28-5.12,3.97c-2.51-0.32-4.28-2.61-3.97-5.12l2.65-20.62 c0.14-1.45,0.97-2.81,2.33-3.57c1.24-0.69,2.65-0.74,3.88-0.27l19.86,7.65c2.36,0.91,3.53,3.56,2.62,5.92 c-0.91,2.36-3.56,3.53-5.92,2.62l-6.78-2.61c7.43,10.08,16.33,18.5,25.94,25.06c13.84,9.45,29.1,15,43.51,16.04 c2.53,0.18,4.43,2.37,4.25,4.9c-0.18,2.53-2.37,4.43-4.9,4.25c-15.99-1.13-32.85-7.23-48.03-17.6 C59.02,39.09,48.95,29.41,40.66,17.78L40.66,17.78L40.66,17.78z"/></g></svg>