<?xml version="1.0" encoding="utf-8"?><svg version="1.1" id="Layer_1" xmlns="http://www.w3.org/2000/svg" xmlns:xlink="http://www.w3.org/1999/xlink" x="0px" y="0px" viewBox="0 0 114.98 122.88" style="enable-background:new 0 0 114.98 122.88" xml:space="preserve"><style type="text/css"><![CDATA[
	.st0{fill:#F4BB2C;}
	.st1{fill:#5C546A;}
]]></style><g><path class="st1" d="M68.72,116.34c-1.22,2.09-2.9,3.72-4.82,4.83c-1.71,1-3.62,1.57-5.53,1.69c-1.94,0.12-3.9-0.25-5.69-1.11 c-1.22-0.6-2.36-1.43-3.37-2.51L68.72,116.34L68.72,116.34L68.72,116.34L68.72,116.34z M71.41,95.83l-0.63,2.95l-0.16,2.1 l-25.33,3.77c-0.09-1.51-0.33-3.14-0.71-4.83L71.41,95.83L71.41,95.83L71.41,95.83L71.41,95.83z M70.57,105.48l0.02,1.27l0.03,0.44 c0.07,0.83,0.08,1.67,0.03,2.5l-0.38,1.83l-23.52,3.5l-0.41-0.94l-0.92-3.76l-0.02-1.09L70.57,105.48L70.57,105.48L70.57,105.48 L70.57,105.48z"/><path d="M56.76,3.84c0.03-1.09,0.49-2.06,1.22-2.75c0.71-0.68,1.69-1.09,2.75-1.08V0c0.09,0,0.18,0.01,0.27,0.02 c0.99,0.08,1.88,0.53,2.52,1.2c0.68,0.71,1.09,1.68,1.08,2.75h0.01c0,0.07,0,0.14-0.01,0.2l-0.21,8.37h0.01 c0,0.09-0.01,0.18-0.02,0.27c-0.08,1-0.53,1.88-1.2,2.52c-0.72,0.68-1.69,1.09-2.75,1.08v0.01c-0.09,0-0.18-0.01-0.27-0.02 c-1-0.08-1.88-0.53-2.52-1.2c-0.68-0.72-1.09-1.69-1.08-2.75h-0.01c0-0.07,0-0.14,0.01-0.2L56.76,3.84L56.76,3.84L56.76,3.84 L56.76,3.84z M14.26,18.5c-0.79-0.74-1.21-1.73-1.25-2.73s0.31-2.02,1.04-2.81c0.74-0.79,1.73-1.21,2.73-1.25s2.02,0.31,2.81,1.04 l6.28,5.85c0.79,0.74,1.21,1.73,1.25,2.73c0.04,1.01-0.31,2.02-1.04,2.81c-0.74,0.79-1.73,1.21-2.73,1.25 c-1.01,0.04-2.02-0.31-2.81-1.04L14.26,18.5L14.26,18.5L14.26,18.5L14.26,18.5z M3.99,61.66c-1.06,0.02-2.03-0.39-2.75-1.06 c-0.73-0.69-1.2-1.65-1.24-2.74c-0.04-1.08,0.37-2.08,1.06-2.81c0.69-0.73,1.65-1.2,2.74-1.23l8.57-0.29 c1.08-0.04,2.08,0.37,2.81,1.06c0.73,0.69,1.2,1.65,1.23,2.74v0.06h0.01l-0.01,0.14c-0.02,1.01-0.42,1.92-1.06,2.61 c-0.69,0.73-1.65,1.19-2.74,1.23h-0.06v0.01h-0.09L3.99,61.66L3.99,61.66L3.99,61.66L3.99,61.66z M110.69,49.51l0.13-0.01 c1.02-0.06,1.97,0.27,2.71,0.87c0.78,0.63,1.31,1.57,1.43,2.64v0.04c0.01,0,0.01,0.11,0.01,0.13c0.06,1.02-0.27,1.97-0.87,2.71 c-0.63,0.78-1.57,1.31-2.64,1.43l-8.53,0.9c-1.08,0.11-2.1-0.23-2.87-0.86c-0.78-0.63-1.32-1.57-1.43-2.64 c-0.11-1.07,0.23-2.1,0.86-2.87c0.63-0.78,1.57-1.32,2.64-1.43C104.98,50.11,107.84,49.78,110.69,49.51L110.69,49.51L110.69,49.51 L110.69,49.51L110.69,49.51z M93.8,15.38c0.61-0.9,1.51-1.46,2.49-1.66c0.98-0.19,2.03-0.01,2.94,0.59l0.01,0.01 c0.9,0.6,1.47,1.51,1.66,2.49c0.19,0.98,0.01,2.03-0.59,2.94l-4.77,7.13c-0.6,0.9-1.51,1.47-2.5,1.67 c-0.98,0.19-2.03,0.01-2.94-0.59c-0.9-0.6-1.47-1.52-1.67-2.5c-0.19-0.98-0.01-2.03,0.59-2.94L93.8,15.38L93.8,15.38L93.8,15.38 L93.8,15.38z"/><path class="st0" d="M36.37,82.46c-2.88-3.29-5.86-6.71-8.22-11.74c-2.31-4.96-3.59-10.08-3.55-15.4c0.05-5.32,1.4-10.8,4.34-16.46 c0.02-0.04,0.04-0.07,0.06-0.11l0,0c3.85-6.52,9.24-10.88,15.24-13.32c5.03-2.06,10.5-2.76,15.86-2.27 c5.34,0.49,10.57,2.17,15.14,4.87c5.81,3.44,10.59,8.54,13.22,14.98c1.42,3.49,2.38,7.38,2.5,11.64c0.12,4.25-0.61,8.83-2.57,13.67 c-3,7.43-10.01,15.39-14.6,22.7c-0.25-0.05-0.51-0.06-0.77-0.02c-9.89,1.47-19.78,2.94-29.67,4.41 C41.72,90.56,39.22,85.72,36.37,82.46L36.37,82.46L36.37,82.46L36.37,82.46z M68.47,36.97c-0.46-0.32-0.99-0.47-1.53-0.36 c-0.54,0.11-0.99,0.39-1.31,0.85l-1.81,2.56c-0.65-0.29-1.31-0.5-2.03-0.68s-1.38-0.32-2.1-0.43l-0.57-3.34 c-0.11-0.57-0.39-0.99-0.81-1.31c-0.47-0.32-0.96-0.43-1.53-0.32l-4.19,0.75c-0.54,0.11-0.96,0.36-1.31,0.82 c-0.32,0.47-0.46,0.96-0.36,1.53l0.54,3.06c-0.68,0.29-1.31,0.61-1.92,0.99c-0.61,0.36-1.21,0.79-1.74,1.21l-2.84-1.96 c-0.47-0.32-0.96-0.47-1.49-0.36c-0.54,0.11-0.99,0.39-1.31,0.86l-2.42,3.45c-0.32,0.46-0.46,0.99-0.36,1.53 c0.11,0.57,0.39,0.99,0.86,1.31l2.55,1.81c-0.29,0.64-0.5,1.31-0.68,2.03c-0.18,0.72-0.32,1.38-0.43,2.1l-3.34,0.57 c-0.57,0.11-0.99,0.39-1.31,0.81c-0.32,0.47-0.43,0.96-0.32,1.53l0.75,4.19c0.11,0.54,0.36,0.96,0.81,1.31 c0.47,0.32,0.96,0.47,1.53,0.36l3.06-0.54c0.29,0.68,0.61,1.31,0.99,1.92c0.36,0.61,0.79,1.21,1.21,1.78l-1.96,2.8 c-0.32,0.46-0.46,0.96-0.36,1.49c0.11,0.54,0.39,0.99,0.85,1.31l3.49,2.45c0.47,0.32,0.99,0.43,1.53,0.32 c0.54-0.11,0.99-0.36,1.35-0.81l1.82-2.59c0.65,0.29,1.31,0.5,2.03,0.68c0.72,0.18,1.38,0.32,2.1,0.43l0.57,3.34 c0.11,0.57,0.39,0.99,0.81,1.31c0.47,0.32,0.96,0.43,1.53,0.32l4.19-0.75c0.54-0.11,0.96-0.36,1.31-0.81 c0.32-0.46,0.47-0.96,0.36-1.53l-0.54-3.06c0.68-0.29,1.31-0.61,1.92-0.99c0.61-0.36,1.21-0.78,1.78-1.21l2.81,1.96 c0.46,0.32,0.96,0.46,1.53,0.36c0.57-0.11,0.99-0.39,1.31-0.85l2.45-3.49c0.32-0.46,0.43-0.99,0.32-1.53 c-0.11-0.54-0.36-0.99-0.82-1.35l-2.59-1.78c0.29-0.64,0.5-1.31,0.68-2.03c0.18-0.72,0.32-1.39,0.43-2.1l3.34-0.57 c0.57-0.11,0.99-0.39,1.31-0.82C78.9,55.06,79,54.57,78.9,54l-0.75-4.19c-0.11-0.54-0.36-0.96-0.81-1.31 c-0.47-0.32-0.96-0.47-1.53-0.36l-3.06,0.54c-0.29-0.65-0.61-1.28-0.99-1.92c-0.36-0.65-0.79-1.21-1.21-1.74l1.96-2.84 c0.32-0.46,0.46-0.96,0.36-1.49c-0.11-0.54-0.39-0.99-0.85-1.31l-3.45-2.42L68.47,36.97L68.47,36.97L68.47,36.97z M56.27,46.86 c1.1-0.18,2.21-0.18,3.31,0.07c1.06,0.25,2.03,0.68,2.91,1.28c0.85,0.61,1.6,1.38,2.21,2.32c0.61,0.92,0.99,1.96,1.17,3.06 c0.18,1.1,0.18,2.21-0.07,3.31c-0.25,1.06-0.68,2.03-1.28,2.91c-0.61,0.85-1.38,1.6-2.32,2.21c-0.92,0.61-1.96,0.99-3.06,1.17 c-1.1,0.18-2.21,0.18-3.31-0.07c-1.06-0.25-2.03-0.68-2.91-1.28c-0.85-0.61-1.6-1.38-2.21-2.31c-0.61-0.92-0.99-1.96-1.17-3.06 c-0.18-1.1-0.18-2.21,0.07-3.31c0.25-1.06,0.68-2.03,1.28-2.91c0.61-0.85,1.39-1.6,2.32-2.21C54.15,47.43,55.17,47.03,56.27,46.86 L56.27,46.86L56.27,46.86z"/></g></svg>