<svg xmlns="http://www.w3.org/2000/svg" shape-rendering="geometricPrecision" text-rendering="geometricPrecision" image-rendering="optimizeQuality" fill-rule="evenodd" clip-rule="evenodd" viewBox="0 0 512 475.957"><path fill-rule="nonzero" d="M57.705 238.569V281H21.216C9.5 281 0 271.5 0 259.786c0-11.717 9.5-21.217 21.216-21.217h36.489zM244.873 0h103.279c12.371 0 23.607 5.058 31.744 13.195 8.143 8.143 13.198 19.388 13.198 31.748s-5.062 23.602-13.203 31.743c-8.14 8.14-19.383 13.203-31.739 13.203H244.873c-12.359 0-23.605-5.056-31.747-13.199-8.137-8.137-13.195-19.373-13.195-31.744 0-12.315 5.051-23.538 13.192-31.703l.081-.08C221.366 5.038 232.578 0 244.873 0zM390.17 418.092l16.693 38.83a13.188 13.188 0 011.322 5.776c0 7.321-5.937 13.259-13.259 13.259H198.667v-.053c-1.479 0-2.982-.249-4.454-.776-6.864-2.459-10.436-10.021-7.977-16.884l14.386-40.152H163.42c-12.047 0-23.006-4.936-30.956-12.882l-.051-.051c-7.946-7.949-12.882-18.909-12.882-30.956v-13.741H79.938c-6.111 0-11.679-2.5-15.703-6.525-4.017-4.016-6.522-9.573-6.522-15.7V181.332c0-6.123 2.496-11.684 6.518-15.706 4.023-4.023 9.583-6.519 15.707-6.519h39.593v-13.741c0-12.047 4.936-23.006 12.882-30.956l.051-.051c7.95-7.946 18.909-12.882 30.956-12.882h240.492c29.737 0 56.762 12.156 76.346 31.741C499.843 152.802 512 179.828 512 209.565v107.642c0 27.758-11.346 52.982-29.625 71.26-18.279 18.279-43.504 29.625-71.26 29.625H390.17z"/><path fill="#2A6F80" d="M375.75 418.093l-161.334.652-15.75 43.952h196.261z"/><path fill="#6BAEC0" d="M79.938 172.366h39.592v174.838H79.938c-4.908 0-8.967-4.034-8.967-8.966V181.332c0-4.933 4.034-8.966 8.967-8.966z"/><path fill="#B2EEFD" d="M163.42 114.736h233.097v290.041l.001.056H163.42c-16.846 0-30.63-13.782-30.63-30.63V145.366c0-16.847 13.784-30.63 30.63-30.63zm35.713 228.48a9.508 9.508 0 010-19.016h143.743c5.25 0 9.508 4.258 9.508 9.508 0 5.251-4.258 9.508-9.508 9.508H199.133zm0-144.96a9.508 9.508 0 010-19.015h143.743c5.25 0 9.508 4.257 9.508 9.507 0 5.251-4.258 9.508-9.508 9.508H199.133zm0 72.481a9.508 9.508 0 010-19.016h143.743c5.25 0 9.508 4.257 9.508 9.508 0 5.25-4.258 9.508-9.508 9.508H199.133zm212.174-155.712c48.735 3.805 87.434 44.871 87.434 94.54v107.642c0 48.132-39.328 87.519-87.436 87.623l.002-.053V115.025z"/><path fill="#F5DAA8" d="M244.873 13.267h103.279c17.423 0 31.676 14.285 31.676 31.676v.003c0 17.391-14.284 31.675-31.676 31.675H244.873c-17.391 0-31.675-14.253-31.675-31.675v-.003c0-17.423 14.253-31.676 31.675-31.676z"/></svg>